<?xml version="1.0" standalone="no"?>
<!DOCTYPE svg PUBLIC "-//W3C//DTD SVG 20010904//EN"
 "http://www.w3.org/TR/2001/REC-SVG-20010904/DTD/svg10.dtd">
<svg version="1.0" xmlns="http://www.w3.org/2000/svg"
 width="200.000000pt" height="200.000000pt" viewBox="0 0 200.000000 200.000000"
 preserveAspectRatio="xMidYMid meet">
<metadata>
Created by potrace 1.11, written by Peter Selinger 2001-2013
</metadata>
<g transform="translate(0.000000,200.000000) scale(0.100000,-0.100000)"
fill="#000000" stroke="none">
<path d="M698 1780 c-83 -14 -148 -18 -148 -9 0 15 -48 10 -57 -5 -8 -15 -98
-26 -252 -31 -78 -3 -85 -5 -93 -26 -14 -36 9 -115 41 -140 24 -20 34 -21 140
-15 90 5 111 3 103 -7 -5 -6 -13 -23 -17 -37 -4 -14 -13 -32 -20 -40 -22 -27
-94 -247 -96 -297 -2 -26 5 -73 15 -103 15 -46 25 -60 57 -78 47 -27 83 -28
109 -2 28 28 26 64 -6 85 -22 14 -25 22 -20 54 6 43 33 116 80 216 19 39 49
109 67 157 31 78 37 87 64 92 31 6 137 17 202 21 134 8 164 57 85 138 l-36 37
-86 -1 c-47 -1 -106 -5 -132 -9z"/>
<path d="M1630 1769 c-91 -23 -194 -56 -235 -74 -16 -7 -46 -20 -65 -29 -71
-31 -100 -71 -100 -141 0 -88 40 -117 185 -135 97 -11 204 -45 212 -66 9 -25
-42 -74 -117 -113 -73 -37 -180 -68 -199 -57 -31 20 -46 -105 -17 -148 12 -20
26 -26 54 -27 20 -1 42 0 47 1 6 1 20 4 32 5 79 10 205 79 265 144 59 64 70
89 69 154 0 37 -6 57 -27 85 -16 20 -33 40 -38 44 -6 4 -8 8 -3 8 13 0 -23 61
-41 67 -9 4 -28 15 -41 25 -13 10 -32 18 -41 18 -10 0 -23 6 -30 14 -9 12 -4
17 32 26 24 6 52 14 63 17 11 4 63 7 115 7 l95 1 3 98 3 97 -73 -1 c-40 0
-107 -9 -148 -20z"/>
<path d="M439 719 c-12 -8 -11 -12 4 -24 22 -16 48 -10 41 10 -8 19 -28 25
-45 14z"/>
<path d="M912 698 c-27 -27 -6 -98 28 -98 17 0 20 7 20 39 0 23 -7 46 -16 55
-19 19 -17 19 -32 4z"/>
<path d="M906 565 c-61 -21 -66 -32 -28 -66 17 -16 32 -31 32 -33 0 -2 -11 -7
-25 -10 -38 -10 -47 -37 -27 -77 29 -57 128 -99 160 -67 22 22 13 38 -20 38
-18 0 -44 9 -57 19 -33 25 -22 51 21 51 47 0 66 14 48 35 -7 9 -26 23 -42 31
-36 19 -36 32 2 29 16 -1 37 3 45 9 15 11 15 13 -2 28 -26 24 -63 28 -107 13z"/>
<path d="M440 520 c-5 -9 -8 -19 -5 -21 4 -4 11 -59 20 -164 13 -133 17 -144
52 -145 20 0 23 16 13 71 -5 30 -12 90 -15 134 -3 44 -7 89 -10 100 -2 11 -4
23 -4 26 -2 17 -42 16 -51 -1z"/>
<path d="M1387 483 c-9 -15 -28 -135 -32 -193 -2 -33 20 -77 46 -90 45 -25
113 19 144 94 27 63 -19 166 -74 166 -14 0 -35 7 -45 15 -22 17 -33 19 -39 8z
m113 -131 c0 -38 -41 -102 -65 -102 -17 0 -28 35 -21 70 2 14 5 30 5 36 1 6
11 23 22 38 20 26 22 26 40 10 12 -11 19 -31 19 -52z"/>
<path d="M927 263 c-9 -8 -9 -50 -1 -81 5 -16 13 -22 28 -20 17 2 21 10 22 46
1 32 -4 45 -17 52 -21 12 -24 12 -32 3z"/>
</g>
</svg>
